<svg width="25" height="24" viewBox="0 0 25 24" fill="none" xmlns="http://www.w3.org/2000/svg">
<path d="M12.0156 15C13.6725 15 15.0156 13.6569 15.0156 12C15.0156 10.3431 13.6725 9 12.0156 9C10.3588 9 9.01562 10.3431 9.01562 12C9.01562 13.6569 10.3588 15 12.0156 15Z" stroke="#171717" stroke-width="1.5" stroke-miterlimit="10" stroke-linecap="round" stroke-linejoin="round"/>
<path d="M2.01562 12.8801V11.1201C2.01562 10.0801 2.86563 9.22006 3.91563 9.22006C5.72563 9.22006 6.46562 7.94006 5.55562 6.37006C5.03562 5.47006 5.34562 4.30006 6.25562 3.78006L7.98562 2.79006C8.77562 2.32006 9.79563 2.60006 10.2656 3.39006L10.3756 3.58006C11.2756 5.15006 12.7556 5.15006 13.6656 3.58006L13.7756 3.39006C14.2456 2.60006 15.2656 2.32006 16.0556 2.79006L17.7856 3.78006C18.6956 4.30006 19.0056 5.47006 18.4856 6.37006C17.5756 7.94006 18.3156 9.22006 20.1256 9.22006C21.1656 9.22006 22.0256 10.0701 22.0256 11.1201V12.8801C22.0256 13.9201 21.1756 14.7801 20.1256 14.7801C18.3156 14.7801 17.5756 16.0601 18.4856 17.6301C19.0056 18.5401 18.6956 19.7001 17.7856 20.2201L16.0556 21.2101C15.2656 21.6801 14.2456 21.4001 13.7756 20.6101L13.6656 20.4201C12.7656 18.8501 11.2856 18.8501 10.3756 20.4201L10.2656 20.6101C9.79563 21.4001 8.77562 21.6801 7.98562 21.2101L6.25562 20.2201C5.34562 19.7001 5.03562 18.5301 5.55562 17.6301C6.46562 16.0601 5.72563 14.7801 3.91563 14.7801C2.86563 14.7801 2.01562 13.9201 2.01562 12.8801Z" stroke="#171717" stroke-width="1.5" stroke-miterlimit="10" stroke-linecap="round" stroke-linejoin="round"/>
</svg>
